<svg xmlns="http://www.w3.org/2000/svg" width="454" height="445" viewBox="0 0 454 445">
  <g id="Group_17" data-name="Group 17" transform="translate(-153 -290)">
    <g id="Path_4" data-name="Path 4" transform="translate(153 290)" fill="#1e90ff">
      <path d="M 227 444.5 C 211.6312713623047 444.5 196.2723846435547 442.9823913574219 181.3499450683594 439.9893188476563 C 166.8070526123047 437.0724487304688 152.5022277832031 432.7200012207031 138.8328399658203 427.0529479980469 C 125.4116668701172 421.4888305664063 112.4669418334961 414.6019592285156 100.3582229614258 406.5836181640625 C 88.36460876464844 398.6415100097656 77.08633422851563 389.5205993652344 66.83677673339844 379.4742126464844 C 56.58733367919922 369.4279479980469 47.28216552734375 358.3735961914063 39.17972183227539 346.6181030273438 C 30.99977684020996 334.7502136230469 23.97411155700684 322.06298828125 18.29788970947266 308.908935546875 C 12.51683330535889 295.5119323730469 8.076833724975586 281.4922790527344 5.101277828216553 267.2393188476563 C 2.048111200332642 252.6145629882813 0.5 237.5620574951172 0.5 222.5 C 0.5 207.4379425048828 2.048111200332642 192.3854370117188 5.101277828216553 177.7606658935547 C 8.076833724975586 163.5077209472656 12.51683330535889 149.4880523681641 18.29788970947266 136.0910491943359 C 23.97411155700684 122.9369964599609 30.99977684020996 110.2497787475586 39.17972183227539 98.38188934326172 C 47.28216552734375 86.62644195556641 56.58733367919922 75.57205200195313 66.83677673339844 65.52583312988281 C 77.08633422851563 55.47944259643555 88.36460876464844 46.35850143432617 100.3582229614258 38.41638946533203 C 112.4669418334961 30.39805603027344 125.4116668701172 23.51116752624512 138.8328399658203 17.94705581665039 C 152.5022277832031 12.27999973297119 166.8070526123047 7.927555561065674 181.3499450683594 5.010666847229004 C 196.2723846435547 2.017611026763916 211.6312713623047 0.5 227 0.5 C 242.3687286376953 0.5 257.7276000976563 2.017611026763916 272.6500549316406 5.010666847229004 C 287.1929321289063 7.927555561065674 301.4977722167969 12.27999973297119 315.1671752929688 17.94705581665039 C 328.5883483886719 23.51116752624512 341.5330505371094 30.39805603027344 353.6417846679688 38.41638946533203 C 365.6353759765625 46.35850143432617 376.9136657714844 55.47944259643555 387.1632080078125 65.52583312988281 C 397.4126586914063 75.57205200195313 406.7178344726563 86.62644195556641 414.8202819824219 98.38188934326172 C 423.0002136230469 110.2497787475586 430.02587890625 122.9369964599609 435.7021179199219 136.0910491943359 C 441.483154296875 149.4880523681641 445.9231567382813 163.5077209472656 448.8987121582031 177.7606658935547 C 451.9518737792969 192.3854370117188 453.5 207.4379425048828 453.5 222.5 C 453.5 236.0684967041016 452.241943359375 249.6572265625 449.7608337402344 262.8886108398438 C 447.3382873535156 275.8078308105469 443.7134399414063 288.5837097167969 438.9869384765625 300.8615417480469 C 434.3448181152344 312.9202270507813 428.5767211914063 324.66455078125 421.8428955078125 335.7683410644531 C 415.1833190917969 346.7496032714844 407.49560546875 357.2430419921875 398.9932250976563 366.9571533203125 C 388.6142883300781 378.8153381347656 376.9299926757813 389.6302185058594 364.2650146484375 399.1014404296875 C 351.5063781738281 408.6426696777344 337.695556640625 416.8621215820313 323.2161560058594 423.5314331054688 C 308.4703979492188 430.3234558105469 292.9404907226563 435.5480041503906 277.0580139160156 439.0599365234375 C 260.7330017089844 442.6697082519531 243.8910522460938 444.5 227 444.5 Z" stroke="none"/>
      <path d="M 227 1 C 211.6642303466797 1 196.3384094238281 2.5142822265625 181.4482421875 5.500885009765625 C 166.9371643066406 8.411407470703125 152.6636962890625 12.75430297851563 139.0243530273438 18.408935546875 C 125.6326599121094 23.9608154296875 112.7163391113281 30.83258056640625 100.6342468261719 38.83328247070313 C 88.66705322265625 46.75787353515625 77.4136962890625 55.85870361328125 67.186767578125 65.88287353515625 C 56.96017456054688 75.90676879882813 47.67572021484375 86.93646240234375 39.59140014648438 98.6656494140625 C 31.429931640625 110.5066528320313 24.42022705078125 123.1650695800781 18.75692749023438 136.2891845703125 C 12.98916625976563 149.6553649902344 8.559417724609375 163.6427612304688 5.5906982421875 177.8628234863281 C 2.544525146484375 192.4540557861328 1 207.4721832275391 1 222.5 C 1 237.5278167724609 2.544525146484375 252.5459442138672 5.5906982421875 267.1371765136719 C 8.559417724609375 281.3572387695313 12.98916625976563 295.3446655273438 18.75692749023438 308.7108154296875 C 24.42022705078125 321.8349304199219 31.429931640625 334.4933471679688 39.59140014648438 346.3343505859375 C 47.67572021484375 358.0635375976563 56.96017456054688 369.0932312011719 67.186767578125 379.1171264648438 C 77.4136962890625 389.1412963867188 88.66705322265625 398.2421264648438 100.6342468261719 406.1667175292969 C 112.7163391113281 414.1674194335938 125.6326599121094 421.0391845703125 139.0243530273438 426.591064453125 C 152.6636962890625 432.2456970214844 166.9371643066406 436.5885925292969 181.4482421875 439.4991149902344 C 196.3384094238281 442.4857177734375 211.6642303466797 444 227 444 C 243.8547668457031 444 260.660400390625 442.1736450195313 276.9500122070313 438.5717163085938 C 292.7977600097656 435.0674743652344 308.2935180664063 429.8543395996094 323.0069580078125 423.0772399902344 C 337.4544677734375 416.4225769042969 351.2349243164063 408.2212524414063 363.9655151367188 398.700927734375 C 376.6025390625 389.2506408691406 388.2609252929688 378.459716796875 398.616943359375 366.6278686523438 C 407.1002807617188 356.9354858398438 414.770751953125 346.465576171875 421.4153442382813 335.5090637207031 C 428.1338195800781 324.4306030273438 433.8888244628906 312.7130737304688 438.5202941894531 300.6819458007813 C 443.2359313964844 288.4324340820313 446.8524169921875 275.6858825683594 449.2694091796875 262.7965087890625 C 451.7448120117188 249.5953521728516 453 236.0376434326172 453 222.5 C 453 207.4721832275391 451.4554748535156 192.4540557861328 448.4093017578125 177.8628234863281 C 445.4405822753906 163.6427612304688 441.0108337402344 149.6553649902344 435.2430725097656 136.2891845703125 C 429.5797729492188 123.1650695800781 422.5700073242188 110.5066528320313 414.4085998535156 98.6656494140625 C 406.32421875 86.93646240234375 397.0398254394531 75.90676879882813 386.813232421875 65.88287353515625 C 376.5863037109375 55.85870361328125 365.3329467773438 46.75787353515625 353.36572265625 38.83328247070313 C 341.2836303710938 30.83258056640625 328.3673706054688 23.9608154296875 314.9756469726563 18.408935546875 C 301.3362426757813 12.75430297851563 287.062744140625 8.411407470703125 272.5517578125 5.500885009765625 C 257.6615905761719 2.5142822265625 242.3357696533203 1 227 1 M 227 0 C 352.3685913085938 0 454 99.61663818359375 454 222.5 C 454 277.7975463867188 433.4196472167969 328.383544921875 399.3694152832031 367.2864685058594 C 357.7249450683594 414.8659362792969 295.9527587890625 445 227 445 C 101.63134765625 445 0 345.3833618164063 0 222.5 C 0 99.61663818359375 101.63134765625 0 227 0 Z" stroke="none" fill="#707070"/>
    </g>
    <g id="Polygon_1" data-name="Polygon 1" transform="translate(490.5 407.5) rotate(90)" fill="#fff">
      <path d="M 209.0950164794922 166.5 L 0.9049888253211975 166.5 L 104.9999771118164 0.939363420009613 L 209.0950164794922 166.5 Z" stroke="none"/>
      <path d="M 104.9999771118164 1.87872314453125 L 1.809982299804688 166 L 208.1900177001953 166 L 104.9999771118164 1.87872314453125 M 104.9999771118164 0 L 210 167 L 0 167 L 104.9999771118164 0 Z" stroke="none" fill="#707070"/>
    </g>
  </g>
</svg>
