<svg xmlns="http://www.w3.org/2000/svg" width="611" height="145" viewBox="0 0 611 145">
  <defs>
    <style>
      .cls-1 {
        fill: #2e2727;
        font-size: 109px;
        font-family: SegoeUI-Bold, Segoe UI;
        font-weight: 700;
      }

      .cls-2 {
        fill: #1e90ff;
      }

      .cls-3 {
        fill: #fff;
      }

      .cls-4, .cls-5 {
        stroke: none;
      }

      .cls-5 {
        fill: #1e90ff;
      }
    </style>
  </defs>
  <g id="moviefy100" transform="translate(-540 -318)">
    <text id="Moviefy100-2" data-name="Moviefy100" class="cls-1" transform="translate(540 436)"><tspan x="0" y="0">Moviefy100</tspan></text>
    <g id="Group_1" data-name="Group 1" transform="translate(71 -295.724)">
      <g id="Path_1" data-name="Path 1" class="cls-2" transform="matrix(0.999, -0.035, 0.035, 0.999, 570.498, 669.989)">
        <path class="cls-4" d="M 33.3923454284668 66.58954620361328 L 33.38025665283203 66.58954620361328 C 28.95043563842773 66.58954620361328 24.65395545959473 65.717529296875 20.61016654968262 63.99772262573242 C 16.70379638671875 62.33636474609375 13.19583606719971 59.95774459838867 10.18372631072998 56.92794418334961 C 7.171386241912842 53.89791107177734 4.806836128234863 50.36935424804688 3.155766248703003 46.44029235839844 C 1.446416258811951 42.37254333496094 0.5805162787437439 38.05083465576172 0.5821162462234497 33.59521484375 C 0.5837162733078003 29.13877296447754 1.453156232833862 24.81560325622559 3.16628623008728 20.74578285217285 C 4.821006298065186 16.81471252441406 7.189196109771729 13.28387260437012 10.2050666809082 10.25133323669434 C 13.22075653076172 7.218983173370361 16.73186683654785 4.837903022766113 20.64085578918457 3.174232959747314 C 24.68743705749512 1.45201301574707 28.98587608337402 0.5779629349708557 33.41677474975586 0.5763529539108276 L 33.42888641357422 0.5763529539108276 C 37.85870742797852 0.5763529539108276 42.15517807006836 1.448362946510315 46.19896697998047 3.16817307472229 C 50.1053352355957 4.829533100128174 53.61329650878906 7.208142757415771 56.62540817260742 10.23794269561768 C 59.63773727416992 13.26797294616699 62.00227737426758 16.79653358459473 63.65334701538086 20.72559356689453 C 65.36269378662109 24.79334259033203 66.22859954833984 29.11505317687988 66.22699737548828 33.57067108154297 C 66.22539520263672 38.02711486816406 65.35595703125 42.35028457641602 63.64283752441406 46.42010116577148 C 61.98811721801758 50.35117340087891 59.61992645263672 53.88201141357422 56.60404586791992 56.91455459594727 C 53.5883674621582 59.94691467285156 50.07725524902344 62.32798385620117 46.16826629638672 63.99165344238281 C 42.12168502807617 65.71388244628906 37.82324600219727 66.58793640136719 33.3923454284668 66.58954620361328 Z"/>
        <path class="cls-5" d="M 33.41695785522461 1.076339721679688 C 29.05366516113281 1.077926635742188 24.82103729248047 1.938545227050781 20.83665466308594 3.634292602539063 C 16.98728561401367 5.2725830078125 13.52958679199219 7.617504119873047 10.55959701538086 10.60390472412109 C 7.589225769042969 13.59069442749023 5.256805419921875 17.06817245483398 3.627117156982422 20.93977355957031 C 1.939956665039063 24.94790267944336 1.083694458007813 29.20587158203125 1.082122802734375 33.59539413452148 C 1.080543518066406 37.98407363891602 1.933303833007813 42.24054336547852 3.616725921630859 46.24658203125 C 5.242767333984375 50.11608123779297 7.571517944335938 53.59120178222656 10.53829574584961 56.57541275024414 C 13.50466537475586 59.55921173095703 16.95916748046875 61.9016227722168 20.80583572387695 63.53759384155273 C 24.78739547729492 65.23093414306641 29.01803588867188 66.08953094482422 33.3802375793457 66.08953094482422 L 33.39216613769531 66.08953094482422 C 37.75545501708984 66.08795166015625 41.98808670043945 65.22733306884766 45.97246551513672 63.53158187866211 C 49.82182693481445 61.89329147338867 53.27952575683594 59.54838180541992 56.24951553344727 56.56198120117188 C 59.21988677978516 53.5751953125 61.55230712890625 50.09771347045898 63.1819953918457 46.22611236572266 C 64.86915588378906 42.21798324584961 65.72541809082031 37.96001434326172 65.72699737548828 33.57049179077148 C 65.72857666015625 29.18181228637695 64.87580871582031 24.92534255981445 63.19238662719727 20.91929244995117 C 61.56634521484375 17.0497932434082 59.23759460449219 13.57467269897461 56.27080535888672 10.59046173095703 C 53.30443572998047 7.606662750244141 49.84993743896484 5.264251708984375 46.00326538085938 3.628284454345703 C 42.02170562744141 1.934944152832031 37.79106903076172 1.076339721679688 33.42886734008789 1.076339721679688 L 33.41695785522461 1.076339721679688 M 33.42887115478516 0.0763397216796875 C 51.82769012451172 0.0763397216796875 66.73363494873047 15.06906127929688 66.72699737548828 33.57085418701172 C 66.72034454345703 52.07603454589844 51.79600524902344 67.08286285400391 33.39252471923828 67.08953094482422 C 33.38915634155273 67.08953094482422 33.38360214233398 67.08953857421875 33.38023376464844 67.08953857421875 C 14.98140335083008 67.08953857421875 0.07547760009765625 52.0968132019043 0.082122802734375 33.59503173828125 C 0.08875274658203125 15.08985137939453 15.01311492919922 0.0830230712890625 33.41659545898438 0.0763397216796875 C 33.41996765136719 0.0763397216796875 33.42549896240234 0.0763397216796875 33.42887115478516 0.0763397216796875 Z"/>
      </g>
      <path id="Polygon_1" data-name="Polygon 1" class="cls-3" d="M14,0,28,27H0Z" transform="matrix(-0.017, 1, -1, -0.017, 622.93, 688.624)"/>
    </g>
  </g>
</svg>
