<svg xmlns="http://www.w3.org/2000/svg" width="503.705" height="503.42" viewBox="0 0 503.705 503.42">
  <g id="spinner" transform="translate(-572.985 -248.181)">
    <path id="Path_1" data-name="Path 1" d="M52,0A52,52,0,1,1,0,52,52,52,0,0,1,52,0Z" transform="matrix(0.545, 0.839, -0.839, 0.545, 831.212, 248.181)" fill="#1e90ff"/>
    <path id="Path_1-2" data-name="Path 1" d="M50.97,0A50.97,50.97,0,1,1,0,50.97,50.97,50.97,0,0,1,50.97,0Z" transform="matrix(0.545, 0.839, -0.839, 0.545, 658.479, 380.227)" fill="#1e90ff"/>
    <g id="Group_2" data-name="Group 2" transform="translate(458.176 -318.46) rotate(47)">
      <ellipse id="Ellipse_2" data-name="Ellipse 2" cx="45" cy="44.5" rx="45" ry="44.5" transform="matrix(0.985, 0.174, -0.174, 0.985, 818.647, 431.723)" fill="#1e90ff"/>
    </g>
    <g id="Group_12" data-name="Group 12" transform="translate(865.399 -338.332) rotate(47)">
      <g id="Group_2-2" data-name="Group 2" transform="translate(-80.518 112.468)">
        <ellipse id="Ellipse_3" data-name="Ellipse 3" cx="40.5" cy="39.5" rx="40.5" ry="39.5" transform="matrix(0.985, 0.174, -0.174, 0.985, 808.235, 542.599)" fill="#1e90ff"/>
      </g>
      <g id="Group_10" data-name="Group 10" transform="translate(70 -69)">
        <g id="Group_2-3" data-name="Group 2" transform="translate(-218.223 65.966)">
          <path id="Path_2" data-name="Path 2" d="M35,0C54.33,0,70,15.222,70,34S54.33,68,35,68,0,52.778,0,34,15.67,0,35,0Z" transform="matrix(0.985, 0.174, -0.174, 0.985, 928.293, 499.831)" fill="#1e90ff"/>
        </g>
        <g id="Group_8" data-name="Group 8" transform="translate(-218.223 65.966)">
          <path id="Path_2-2" data-name="Path 2" d="M35,0C54.33,0,70,15.222,70,34S54.33,68,35,68,0,52.778,0,34,15.67,0,35,0Z" transform="matrix(0.985, 0.174, -0.174, 0.985, 928.293, 499.831)" fill="#1e90ff"/>
        </g>
        <g id="Group_6" data-name="Group 6" transform="translate(-432.224 -73.033)">
          <circle id="Ellipse_7" data-name="Ellipse 7" cx="13.5" cy="13.5" r="13.5" transform="matrix(0.985, 0.174, -0.174, 0.985, 945.906, 508.114)" fill="#1e90ff"/>
        </g>
        <g id="Group_7" data-name="Group 7" transform="translate(-445.077 -78.752)">
          <circle id="Ellipse_6" data-name="Ellipse 6" cx="22" cy="22" r="22" transform="matrix(0.985, 0.174, -0.174, 0.985, 1075.865, 545.111)" fill="#1e90ff"/>
        </g>
      </g>
    </g>
  </g>
</svg>
